# Blender 4.2.0
# www.blender.org
mtllib low_poly_sword.mtl
o blade
v -0.029689 0.199898 -0.007491
v -0.040372 0.224467 -0.023057
v -0.031318 0.232087 -0.019209
v -0.018801 0.232713 -0.010634
v 0.046296 0.395130 -0.018330
v 0.068742 0.413484 -0.008614
v -0.005935 0.191427 0.011955
v 0.019199 0.203224 0.025710
v 0.017696 0.214609 0.020916
v 0.008722 0.222898 0.011897
v 0.072842 0.385664 0.003401
v -0.028728 0.204585 -0.003972
v -0.037408 0.224545 -0.016618
v -0.032509 0.228667 -0.014536
v -0.018553 0.229365 -0.004976
v 0.047217 0.393463 -0.012752
v 0.063940 0.407137 -0.005513
v -0.007389 0.196975 0.013497
v 0.013030 0.206559 0.024672
v 0.012217 0.212718 0.022078
v 0.002211 0.221960 0.012023
v 0.066994 0.386410 0.003439
v -0.024884 0.202784 -0.009453
v -0.033563 0.222744 -0.022099
v -0.028664 0.226867 -0.020017
v -0.014709 0.227564 -0.010457
v 0.051062 0.391662 -0.018232
v 0.067785 0.405336 -0.010994
v -0.003544 0.195175 0.008016
v 0.016875 0.204758 0.019191
v 0.016062 0.210917 0.016597
v 0.006056 0.220160 0.006542
v 0.070839 0.384610 -0.002042
vn -0.5546 0.2597 0.7906
vn -0.9003 -0.1279 0.4161
vn -0.6858 0.6595 0.3079
vn -0.3717 0.7917 0.4848
vn -0.8925 0.3699 0.2580
vn -0.6786 0.6654 0.3109
vn -0.3282 -0.3319 0.8844
vn 0.0586 0.3940 0.9172
vn -0.0855 0.6897 0.7190
vn 0.0124 0.0472 0.9988
vn -0.6646 -0.3567 0.6565
vn 0.0573 0.4030 0.9134
vn 0.5546 -0.2597 -0.7906
vn -0.0185 -0.5408 -0.8409
vn 0.1959 0.2465 -0.9491
vn 0.5101 0.3788 -0.7722
vn -0.0108 -0.0430 -0.9990
vn 0.2031 0.2524 -0.9461
vn 0.5535 -0.7448 -0.3726
vn 0.9403 -0.0190 -0.3398
vn 0.7963 0.2767 -0.5380
vn 0.8942 -0.3657 -0.2582
vn 0.2171 -0.7696 -0.6005
vn 0.9391 -0.0100 -0.3436
vn -0.3717 0.7918 0.4848
vt 0.711871 0.778812
vt 0.725155 0.785648
vt 0.712052 0.785648
vt 0.702690 0.782870
vt 0.711109 0.777653
vt 0.703139 0.785259
vt 0.704492 0.784282
vt 0.709920 0.786484
vt 0.712364 0.830781
vt 0.718604 0.835506
vt 0.710228 0.831155
vt 0.726098 0.777653
vt 0.734518 0.782870
vt 0.725337 0.778812
vt 0.734069 0.785259
vt 0.732716 0.784282
vt 0.727288 0.786484
vt 0.724844 0.830781
vt 0.726980 0.831155
vt 0.699808 0.782649
vt 0.718604 0.837497
vt 0.737399 0.782649
s 1
usemtl sword_m
f 12/1/1 21/2/1 15/3/1
f 13/4/2 1/5/2 12/1/2
f 3/6/3 13/4/3 14/7/3
f 4/8/4 14/7/4 15/3/4
f 16/9/5 4/8/5 15/3/5
f 17/10/6 5/11/6 16/9/6
f 7/12/7 19/13/7 18/14/7
f 19/13/8 9/15/8 20/16/8
f 20/16/9 10/17/9 21/2/9
f 10/17/10 22/18/10 21/2/10
f 1/5/11 18/14/11 12/1/11
f 11/19/12 17/10/12 22/18/12
f 23/1/13 26/3/13 32/2/13
f 24/4/14 1/5/14 2/20/14
f 24/4/15 3/6/15 25/7/15
f 25/7/16 4/8/16 26/3/16
f 27/9/17 4/8/17 5/11/17
f 28/10/18 5/11/18 6/21/18
f 30/13/19 7/12/19 29/14/19
f 30/13/20 9/15/20 8/22/20
f 31/16/21 10/17/21 9/15/21
f 33/18/22 10/17/22 32/2/22
f 29/14/23 1/5/23 23/1/23
f 28/10/24 11/19/24 33/18/24
f 14/7/1 13/4/1 12/1/1
f 12/1/1 18/14/1 21/2/1
f 18/14/1 19/13/1 20/16/1
f 21/2/1 18/14/1 20/16/1
f 21/2/1 22/18/1 16/9/1
f 22/18/1 17/10/1 16/9/1
f 16/9/1 15/3/1 21/2/1
f 15/3/1 14/7/1 12/1/1
f 13/4/2 2/20/2 1/5/2
f 3/6/3 2/20/3 13/4/3
f 4/8/4 3/6/25 14/7/4
f 16/9/5 5/11/5 4/8/5
f 17/10/6 6/21/6 5/11/6
f 7/12/7 8/22/7 19/13/7
f 19/13/8 8/22/8 9/15/8
f 20/16/9 9/15/9 10/17/9
f 10/17/10 11/19/10 22/18/10
f 1/5/11 7/12/11 18/14/11
f 11/19/12 6/21/12 17/10/12
f 23/1/13 24/4/13 25/7/13
f 26/3/13 27/9/13 32/2/13
f 27/9/13 28/10/13 33/18/13
f 32/2/13 27/9/13 33/18/13
f 23/1/13 25/7/13 26/3/13
f 30/13/13 29/14/13 31/16/13
f 29/14/13 23/1/13 32/2/13
f 32/2/13 31/16/13 29/14/13
f 24/4/14 23/1/14 1/5/14
f 24/4/15 2/20/15 3/6/15
f 25/7/16 3/6/16 4/8/16
f 27/9/17 26/3/17 4/8/17
f 28/10/18 27/9/18 5/11/18
f 30/13/19 8/22/19 7/12/19
f 30/13/20 31/16/20 9/15/20
f 31/16/21 32/2/21 10/17/21
f 33/18/22 11/19/22 10/17/22
f 29/14/23 7/12/23 1/5/23
f 28/10/24 6/21/24 11/19/24
o supp_blade
v -0.044241 0.205722 -0.031204
v -0.045229 0.183604 -0.000575
v -0.054787 0.210662 -0.016169
v -0.067575 0.215222 -0.026638
v -0.049423 0.230982 -0.019083
v -0.036467 0.201131 -0.000187
v -0.034683 0.178664 -0.015610
v -0.016948 0.173519 0.022577
v 0.009072 0.187889 0.036108
v 0.021859 0.183329 0.046576
v 0.019184 0.206516 0.037082
v -0.011335 0.192169 0.020387
v -0.057028 0.210282 -0.041673
v -0.038877 0.226042 -0.034118
v -0.025921 0.196192 -0.015222
v -0.006402 0.168579 0.007542
v 0.019619 0.182950 0.021073
v 0.032406 0.178390 0.031541
v 0.029731 0.201577 0.022047
v -0.000788 0.187229 0.005352
v -0.048327 0.205585 -0.027442
v -0.063100 0.210853 -0.039536
v -0.043543 0.180763 -0.005042
v -0.053101 0.207821 -0.020636
v -0.067875 0.213089 -0.032730
v -0.045854 0.232209 -0.023565
v -0.032433 0.201287 -0.003991
v -0.038769 0.178527 -0.011848
v -0.014197 0.170297 0.018982
v 0.011824 0.184668 0.032513
v 0.026597 0.179400 0.044607
v 0.023352 0.207530 0.033089
v -0.008262 0.192668 0.015795
v -0.041079 0.229973 -0.030371
v -0.027658 0.199051 -0.010797
v -0.009422 0.168061 0.012176
v 0.016598 0.182432 0.025707
v 0.031371 0.177164 0.037801
v 0.028126 0.205294 0.026283
v -0.003488 0.190432 0.008989
vn -0.5546 0.2597 0.7906
vn 0.5546 -0.2597 -0.7906
vn 0.3256 -0.8900 0.3192
vn 0.1407 -0.8017 0.5809
vn 0.1488 -0.8072 0.5712
vn 0.6506 0.5872 0.4816
vn 0.8303 0.5069 0.2315
vn 0.6687 0.5826 0.4620
vn 0.4590 0.8696 -0.1818
vn 0.2677 0.9592 0.0908
vn -0.6713 -0.5336 -0.5144
vn -0.8574 -0.4484 -0.2526
vn -0.8632 -0.4437 -0.2409
vn -0.2674 -0.9593 -0.0913
vn -0.4384 -0.8863 0.1495
vn -0.4593 -0.8694 0.1823
vn -0.2930 -0.9544 -0.0578
vn -0.4384 -0.8863 0.1494
vn 0.8909 0.2563 0.3749
vn 0.7357 0.3276 0.5928
vn 0.7455 0.3244 0.5822
vn -0.2758 -0.9579 -0.0803
vn -0.4525 -0.8751 0.1716
vn -0.3313 0.6901 -0.6435
vn -0.4857 0.7635 -0.4257
vn -0.4930 0.7658 -0.4130
vn -0.1034 0.8399 -0.5328
vn -0.2790 0.9187 -0.2795
vn -0.2650 0.9156 -0.3024
vn -0.1664 -0.9621 -0.2159
vn -0.9179 -0.3834 -0.1026
vn -0.5305 -0.7916 0.3032
vn -0.5756 0.7803 -0.2448
vn 0.5335 0.6054 0.5906
vn -0.5537 -0.5539 -0.6217
vn 0.0449 -0.7267 0.6855
vn 0.5975 0.3619 0.7155
vn -0.3579 0.9233 -0.1392
vn 0.1664 0.9621 0.2159
vn -0.2114 0.6097 -0.7639
vn 0.8976 0.4349 0.0715
vn 0.8418 0.4976 0.2089
vn 0.3326 -0.8916 0.3073
vn 0.4090 -0.8972 0.1664
vn 0.8974 0.2519 0.3624
vn 0.9617 0.1914 0.1964
vn -0.0878 0.8292 -0.5521
vn 0.0062 0.7528 -0.6582
vn 0.5305 0.7916 -0.3032
vn -0.6807 -0.5312 -0.5045
vn -0.3403 0.6954 -0.6330
vt 0.665290 0.783258
vt 0.664313 0.802691
vt 0.648715 0.802691
vt 0.676330 0.805512
vt 0.665620 0.781454
vt 0.676661 0.803708
vt 0.649013 0.804495
vt 0.635038 0.829088
vt 0.664014 0.804495
vt 0.636366 0.803708
vt 0.647407 0.781454
vt 0.685830 0.803708
vt 0.627197 0.803708
vt 0.677989 0.829088
vt 0.628761 0.805512
vt 0.636697 0.805512
vt 0.647738 0.783258
vt 0.635224 0.826433
vt 0.684267 0.805512
vt 0.677804 0.826433
s 1
usemtl sword_m
f 41/23/26 45/24/26 39/25/26
f 53/24/27 50/26/27 49/23/27
f 69/27/28 63/28/29 62/27/30
f 60/29/31 67/30/32 59/30/33
f 73/31/34 60/29/35 66/31/35
f 54/32/36 56/33/37 57/32/38
f 70/28/39 64/34/40 63/28/41
f 55/35/42 57/32/41 58/35/43
f 71/34/44 65/36/45 64/34/46
f 61/33/47 62/27/48 56/33/48
f 67/30/49 58/35/50 59/30/51
f 72/36/52 66/31/53 65/36/54
f 54/32/39 46/37/55 34/38/55
f 57/32/38 35/39/56 36/38/56
f 37/37/57 57/32/41 36/38/57
f 59/30/51 37/37/58 38/40/58
f 60/29/31 38/40/59 39/25/59
f 40/39/60 54/32/36 34/38/60
f 35/39/57 62/27/48 41/23/57
f 41/23/61 63/28/29 42/26/61
f 63/28/41 43/41/57 42/26/57
f 43/41/62 65/36/45 44/42/62
f 44/42/63 66/31/53 45/24/63
f 66/31/35 39/25/64 45/24/64
f 46/37/65 67/30/49 47/40/65
f 47/40/66 68/29/67 48/25/66
f 69/27/47 40/39/55 49/23/55
f 70/28/68 49/23/69 50/26/69
f 51/41/55 70/28/39 50/26/55
f 72/36/70 51/41/71 52/42/71
f 73/31/72 52/42/73 53/24/73
f 68/29/34 53/24/74 48/25/74
f 36/38/26 35/39/26 39/25/26
f 35/39/26 41/23/26 39/25/26
f 42/26/26 43/41/26 44/42/26
f 38/40/26 37/37/26 36/38/26
f 39/25/26 38/40/26 36/38/26
f 41/23/26 42/26/26 45/24/26
f 42/26/26 44/42/26 45/24/26
f 34/38/27 46/37/27 47/40/27
f 34/38/27 47/40/27 48/25/27
f 49/23/27 40/39/27 48/25/27
f 40/39/27 34/38/27 48/25/27
f 52/42/27 51/41/27 50/26/27
f 53/24/27 52/42/27 50/26/27
f 49/23/27 48/25/27 53/24/27
f 69/27/28 70/28/68 63/28/29
f 60/29/31 68/29/67 67/30/32
f 73/31/34 68/29/34 60/29/35
f 54/32/36 61/33/75 56/33/37
f 70/28/39 71/34/42 64/34/40
f 55/35/42 54/32/39 57/32/41
f 71/34/44 72/36/70 65/36/45
f 61/33/47 69/27/47 62/27/48
f 67/30/49 55/35/76 58/35/50
f 72/36/52 73/31/72 66/31/53
f 54/32/39 55/35/42 46/37/55
f 57/32/38 56/33/37 35/39/56
f 37/37/57 58/35/43 57/32/41
f 59/30/51 58/35/50 37/37/58
f 60/29/31 59/30/33 38/40/59
f 40/39/60 61/33/75 54/32/36
f 35/39/57 56/33/48 62/27/48
f 41/23/61 62/27/30 63/28/29
f 63/28/41 64/34/40 43/41/57
f 43/41/62 64/34/46 65/36/45
f 44/42/63 65/36/54 66/31/53
f 66/31/35 60/29/35 39/25/64
f 46/37/65 55/35/76 67/30/49
f 47/40/66 67/30/32 68/29/67
f 69/27/47 61/33/47 40/39/55
f 70/28/68 69/27/28 49/23/69
f 51/41/55 71/34/42 70/28/39
f 72/36/70 71/34/44 51/41/71
f 73/31/72 72/36/52 52/42/73
f 68/29/34 73/31/34 53/24/74
o supp_handle
v -0.019888 0.176088 -0.003759
v -0.016063 0.174756 0.000029
v -0.013284 0.173859 0.004193
v -0.011886 0.173505 0.008232
v -0.012038 0.173736 0.011658
v -0.013722 0.174525 0.014058
v -0.016734 0.175775 0.015142
v -0.020711 0.177338 0.014781
v -0.025174 0.179023 0.013017
v -0.029584 0.180629 0.010063
v -0.033409 0.181960 0.006275
v -0.036188 0.182857 0.002111
v -0.037586 0.183211 -0.001928
v -0.037434 0.182980 -0.005354
v -0.035750 0.182192 -0.007754
v -0.032738 0.180941 -0.008838
v -0.028761 0.179378 -0.008477
v -0.024298 0.177693 -0.006713
v -0.024533 0.168638 -0.001330
v -0.022172 0.170340 -0.003472
v -0.023697 0.168623 -0.002358
v -0.022833 0.169245 -0.003142
v -0.021059 0.167429 0.002110
v -0.018347 0.169008 0.000315
v -0.020047 0.167352 0.001256
v -0.019055 0.167930 0.000599
v -0.018615 0.166640 0.005773
v -0.015568 0.168111 0.004479
v -0.017436 0.166509 0.005169
v -0.016320 0.167048 0.004696
v -0.017501 0.166358 0.008991
v -0.014170 0.167757 0.008518
v -0.016180 0.166191 0.008798
v -0.014961 0.166703 0.008624
v -0.017595 0.166501 0.011119
v -0.014322 0.167988 0.011944
v -0.016303 0.166378 0.011575
v -0.015105 0.166922 0.011877
v -0.018417 0.166886 0.012291
v -0.016006 0.168776 0.014344
v -0.017556 0.166965 0.013360
v -0.016673 0.167657 0.014112
v -0.020288 0.167663 0.012965
v -0.019018 0.170027 0.015429
v -0.019997 0.167979 0.014240
v -0.019532 0.168844 0.015142
v -0.023458 0.168908 0.012676
v -0.022995 0.171590 0.015067
v -0.023571 0.169383 0.013915
v -0.023401 0.170364 0.014790
v -0.027383 0.170391 0.011125
v -0.027458 0.173275 0.013303
v -0.027765 0.170967 0.012257
v -0.027792 0.172022 0.013054
v -0.031388 0.171849 0.008442
v -0.031868 0.174880 0.010349
v -0.031972 0.172498 0.009439
v -0.032148 0.173608 0.010136
v -0.034862 0.173058 0.005002
v -0.035693 0.176212 0.006561
v -0.035621 0.173768 0.005825
v -0.035926 0.174923 0.006396
v -0.037306 0.173847 0.001339
v -0.038472 0.177109 0.002397
v -0.038233 0.174611 0.001911
v -0.038660 0.175806 0.002299
v -0.038420 0.174129 -0.001879
v -0.039870 0.177463 -0.001642
v -0.039489 0.174930 -0.001717
v -0.040020 0.176150 -0.001630
v -0.038326 0.173986 -0.004007
v -0.039718 0.177232 -0.005068
v -0.039366 0.174743 -0.004494
v -0.039876 0.175931 -0.004882
v -0.037504 0.173601 -0.005179
v -0.038034 0.176444 -0.007468
v -0.038113 0.174156 -0.006280
v -0.038307 0.175197 -0.007118
v -0.035633 0.172824 -0.005852
v -0.035022 0.175193 -0.008552
v -0.035672 0.173142 -0.007159
v -0.035448 0.174009 -0.008147
v -0.032463 0.171578 -0.005564
v -0.031045 0.173630 -0.008191
v -0.032098 0.171738 -0.006834
v -0.031579 0.172489 -0.007796
v -0.028538 0.170096 -0.004013
v -0.026582 0.171945 -0.006426
v -0.027904 0.170154 -0.005176
v -0.027189 0.170831 -0.006060
vn 0.3961 -0.2020 -0.8957
vn 0.5019 -0.3783 -0.7778
vn 0.3447 -0.3210 -0.8821
vn 0.8186 -0.3480 -0.4569
vn 0.8621 -0.4900 -0.1292
vn 0.7636 -0.4660 -0.4469
vn 0.9183 -0.3717 -0.1364
vn 0.8740 -0.4807 0.0712
vn 0.7459 -0.2660 0.6106
vn 0.6929 -0.3819 0.6115
vn 0.3098 -0.0759 0.9478
vn 0.0774 -0.1225 0.9894
vn 0.2603 -0.1933 0.9460
vn 0.1268 -0.0010 0.9919
vn -0.2322 0.0004 0.9727
vn -0.1858 0.1224 0.9749
vn -0.4407 0.0795 0.8941
vn -0.3961 0.2020 0.8957
vn -0.5978 0.1368 0.7899
vn -0.5546 0.2597 0.7906
vn -0.7333 0.1838 0.6546
vn -0.6912 0.3072 0.6541
vn -0.8597 0.2242 0.4590
vn -0.8186 0.3480 0.4569
vn -0.9587 0.2470 0.1413
vn -0.9183 0.3717 0.1364
vn -0.9678 0.2446 -0.0594
vn -0.7459 0.2660 -0.6106
vn -0.7868 0.1458 -0.5998
vn -0.3098 0.0759 -0.9478
vn -0.1740 -0.1206 -0.9773
vn -0.3542 -0.0428 -0.9342
vn -0.1268 0.0010 -0.9919
vn 0.1361 -0.2422 -0.9606
vn 0.1858 -0.1224 -0.9749
vn 0.6912 -0.3072 -0.6541
vn 0.6373 -0.4254 -0.6426
vn 0.5546 -0.2597 -0.7906
vn 0.4184 -0.7261 -0.5457
vn 0.2994 -0.6850 -0.6641
vn 0.2259 -0.8748 -0.4285
vn 0.1298 -0.8412 -0.5250
vn -0.2135 -0.9639 -0.1591
vn -0.2698 -0.9619 -0.0447
vn -0.2890 -0.9552 -0.0631
vn 0.5299 -0.7609 -0.3745
vn 0.3142 -0.9044 -0.2887
vn -0.1785 -0.9761 -0.1238
vn -0.2504 -0.9680 -0.0183
vn 0.7884 -0.6035 -0.1194
vn 0.3790 -0.9233 -0.0624
vn -0.1465 -0.9866 -0.0726
vn -0.2326 -0.9722 0.0261
vn 0.8013 -0.5935 0.0756
vn 0.3384 -0.8991 0.2778
vn -0.1237 -0.9923 0.0101
vn -0.2351 -0.9670 0.0981
vn 0.4678 -0.7779 0.4195
vn 0.3238 -0.7105 0.6248
vn -0.2203 -0.9436 0.2470
vn -0.1400 -0.9812 0.1326
vn 0.2037 -0.3136 0.9274
vn -0.1748 -0.6639 0.7271
vn 0.1149 -0.7944 0.5965
vn -0.3246 -0.8982 0.2965
vn -0.2830 -0.9446 0.1664
vn 0.0249 -0.2459 0.9690
vn -0.3436 -0.3517 0.8708
vn -0.4042 -0.8658 0.2949
vn -0.3468 -0.9188 0.1887
vn -0.5266 -0.2835 0.8014
vn -0.3928 -0.5733 0.7191
vn -0.4584 -0.8450 0.2753
vn -0.3913 -0.9020 0.1826
vn -0.6644 -0.2336 0.7099
vn -0.5408 -0.5158 0.6644
vn -0.4993 -0.8300 0.2484
vn -0.4201 -0.8915 0.1696
vn -0.7832 -0.1920 0.5914
vn -0.7489 -0.4416 0.4941
vn -0.6527 -0.4747 0.5905
vn -0.4609 -0.8769 0.1362
vn -0.4417 -0.8837 0.1546
vn -0.8940 -0.1554 0.4202
vn -0.8382 -0.4144 0.3544
vn -0.5344 -0.8179 0.2131
vn -0.4801 -0.8703 0.1099
vn -0.9831 0.1136 0.1438
vn -0.9061 -0.4031 0.1285
vn -0.5666 -0.8079 0.1619
vn -0.4974 -0.8650 0.0654
vn -0.9923 0.1129 -0.0516
vn -0.8715 -0.4426 -0.2110
vn -0.5899 -0.8036 0.0793
vn -0.4945 -0.8692 -0.0067
vn -0.8876 -0.2785 -0.3669
vn -0.7436 -0.3459 -0.5722
vn -0.4943 -0.8549 -0.1575
vn -0.5746 -0.8173 -0.0430
vn -0.3947 -0.1670 -0.9035
vn -0.3522 -0.6625 -0.6611
vn -0.6480 -0.5473 -0.5297
vn -0.3890 -0.8977 -0.2071
vn -0.4466 -0.8916 -0.0750
vn -0.2196 -0.2440 -0.9446
vn -0.0205 -0.5646 -0.8251
vn -0.3089 -0.9286 -0.2055
vn -0.3833 -0.9185 -0.0973
vn 0.1618 -0.6346 -0.7557
vn -0.1313 -0.7455 -0.6534
vn -0.2545 -0.9490 -0.1860
vn -0.3392 -0.9363 -0.0910
vn 0.0177 -0.8006 -0.5989
vn -0.3106 -0.9473 -0.0781
vn 0.9284 -0.3656 0.0659
vn -0.9284 0.3656 -0.0659
vt 0.584349 0.831779
vt 0.594151 0.795915
vt 0.584349 0.795915
vt 0.612573 0.831779
vt 0.618971 0.795915
vt 0.612573 0.795915
vt 0.618971 0.831779
vt 0.622375 0.795915
vt 0.622375 0.831779
vt 0.603953 0.795915
vt 0.603953 0.831779
vt 0.594151 0.831779
vt 0.575730 0.795915
vt 0.575730 0.831779
vt 0.569332 0.795915
vt 0.569332 0.831779
vt 0.565928 0.795915
vt 0.565928 0.831779
vt 0.603833 0.788532
vt 0.594151 0.788532
vt 0.603503 0.783127
vt 0.594151 0.783127
vt 0.603053 0.781148
vt 0.594151 0.781148
vt 0.612314 0.788532
vt 0.611604 0.783127
vt 0.610635 0.781148
vt 0.618537 0.788532
vt 0.617352 0.783127
vt 0.615733 0.781148
vt 0.621769 0.788532
vt 0.620112 0.783127
vt 0.617848 0.781148
vt 0.584470 0.788532
vt 0.584799 0.783127
vt 0.585250 0.781148
vt 0.575989 0.788532
vt 0.576699 0.783127
vt 0.577668 0.781148
vt 0.569766 0.788532
vt 0.570951 0.783127
vt 0.572570 0.781148
vt 0.566534 0.788532
vt 0.568191 0.783127
vt 0.570455 0.781148
s 1
usemtl sword_m
f 91/43/77 93/44/78 161/45/79
f 76/46/80 105/47/81 101/48/82
f 77/49/83 109/50/84 105/47/81
f 78/51/85 113/50/86 109/50/86
f 79/51/87 117/47/88 113/50/89
f 80/49/90 121/48/91 117/47/88
f 81/46/92 125/52/93 121/48/91
f 82/53/94 129/44/95 125/52/93
f 83/54/96 133/45/97 129/44/95
f 84/43/98 137/55/99 133/45/97
f 85/56/100 141/57/101 137/55/99
f 86/58/102 145/59/103 141/57/101
f 87/60/104 149/59/105 145/59/105
f 88/60/106 153/57/107 149/59/108
f 89/58/109 157/55/110 153/57/107
f 90/56/111 161/45/79 157/55/110
f 75/53/112 101/48/82 97/52/113
f 74/54/114 97/52/113 93/44/78
f 93/44/78 99/61/115 95/62/116
f 95/62/116 98/63/117 94/64/118
f 94/64/119 96/65/120 92/66/121
f 97/52/113 103/67/122 99/61/115
f 99/61/115 102/68/123 98/63/117
f 98/63/124 100/69/125 96/65/120
f 101/48/82 107/70/126 103/67/122
f 103/67/122 106/71/127 102/68/123
f 102/68/128 104/72/129 100/69/125
f 105/47/81 111/73/130 107/70/126
f 107/70/127 110/74/131 106/71/127
f 106/71/132 108/75/133 104/72/129
f 113/50/86 111/73/134 109/50/86
f 115/73/135 110/74/131 111/73/134
f 114/74/136 108/75/133 110/74/137
f 117/47/88 115/73/138 113/50/89
f 119/70/139 114/74/140 115/73/135
f 118/71/141 112/75/142 114/74/136
f 121/48/91 119/70/143 117/47/88
f 123/67/144 118/71/139 119/70/139
f 122/68/145 116/72/146 118/71/141
f 125/52/93 123/67/144 121/48/91
f 127/61/147 122/68/148 123/67/144
f 126/63/149 120/69/150 122/68/145
f 129/44/95 127/61/147 125/52/93
f 131/62/151 126/63/152 127/61/147
f 130/64/153 124/65/154 126/63/149
f 129/44/95 135/76/155 131/62/151
f 131/62/151 134/77/156 130/64/157
f 130/64/153 132/78/158 128/66/159
f 133/45/97 139/79/160 135/76/155
f 135/76/155 138/80/161 134/77/156
f 134/77/162 136/81/163 132/78/158
f 137/55/99 143/82/164 139/79/160
f 139/79/160 142/83/165 138/80/161
f 138/80/166 140/84/167 136/81/163
f 141/57/101 147/85/168 143/82/164
f 143/82/165 146/86/169 142/83/165
f 142/83/170 144/87/171 140/84/167
f 149/59/105 147/85/172 145/59/105
f 151/85/173 146/86/169 147/85/172
f 150/86/174 144/87/171 146/86/175
f 153/57/107 151/85/176 149/59/108
f 155/82/177 150/86/178 151/85/173
f 154/83/179 148/87/180 150/86/174
f 157/55/110 155/82/181 153/57/107
f 159/79/182 154/83/177 155/82/177
f 158/80/183 152/84/184 154/83/179
f 161/45/79 159/79/182 157/55/110
f 163/76/185 158/80/186 159/79/182
f 162/77/187 156/81/188 158/80/183
f 93/44/78 163/76/185 161/45/79
f 95/62/116 162/77/189 163/76/185
f 94/64/119 160/78/190 162/77/187
f 156/81/188 160/78/190 136/81/163
f 91/43/77 74/54/114 93/44/78
f 76/46/80 77/49/83 105/47/81
f 77/49/83 78/51/191 109/50/84
f 78/51/85 79/51/85 113/50/86
f 79/51/87 80/49/90 117/47/88
f 80/49/90 81/46/92 121/48/91
f 81/46/92 82/53/94 125/52/93
f 82/53/94 83/54/96 129/44/95
f 83/54/96 84/43/98 133/45/97
f 84/43/98 85/56/100 137/55/99
f 85/56/100 86/58/102 141/57/101
f 86/58/102 87/60/192 145/59/103
f 87/60/104 88/60/104 149/59/105
f 88/60/106 89/58/109 153/57/107
f 89/58/109 90/56/111 157/55/110
f 90/56/111 91/43/77 161/45/79
f 75/53/112 76/46/80 101/48/82
f 74/54/114 75/53/112 97/52/113
f 93/44/78 97/52/113 99/61/115
f 95/62/116 99/61/115 98/63/117
f 94/64/119 98/63/124 96/65/120
f 97/52/113 101/48/82 103/67/122
f 99/61/115 103/67/122 102/68/123
f 98/63/124 102/68/128 100/69/125
f 101/48/82 105/47/81 107/70/126
f 103/67/122 107/70/127 106/71/127
f 102/68/128 106/71/132 104/72/129
f 105/47/81 109/50/84 111/73/130
f 107/70/127 111/73/134 110/74/131
f 106/71/132 110/74/137 108/75/133
f 113/50/86 115/73/135 111/73/134
f 115/73/135 114/74/140 110/74/131
f 114/74/136 112/75/142 108/75/133
f 117/47/88 119/70/143 115/73/138
f 119/70/139 118/71/139 114/74/140
f 118/71/141 116/72/146 112/75/142
f 121/48/91 123/67/144 119/70/143
f 123/67/144 122/68/148 118/71/139
f 122/68/145 120/69/150 116/72/146
f 125/52/93 127/61/147 123/67/144
f 127/61/147 126/63/152 122/68/148
f 126/63/149 124/65/154 120/69/150
f 129/44/95 131/62/151 127/61/147
f 131/62/151 130/64/157 126/63/152
f 130/64/153 128/66/159 124/65/154
f 129/44/95 133/45/97 135/76/155
f 131/62/151 135/76/155 134/77/156
f 130/64/153 134/77/162 132/78/158
f 133/45/97 137/55/99 139/79/160
f 135/76/155 139/79/160 138/80/161
f 134/77/162 138/80/166 136/81/163
f 137/55/99 141/57/101 143/82/164
f 139/79/160 143/82/165 142/83/165
f 138/80/166 142/83/170 140/84/167
f 141/57/101 145/59/103 147/85/168
f 143/82/165 147/85/172 146/86/169
f 142/83/170 146/86/175 144/87/171
f 149/59/105 151/85/173 147/85/172
f 151/85/173 150/86/178 146/86/169
f 150/86/174 148/87/180 144/87/171
f 153/57/107 155/82/181 151/85/176
f 155/82/177 154/83/177 150/86/178
f 154/83/179 152/84/184 148/87/180
f 157/55/110 159/79/182 155/82/181
f 159/79/182 158/80/186 154/83/177
f 158/80/183 156/81/188 152/84/184
f 161/45/79 163/76/185 159/79/182
f 163/76/185 162/77/189 158/80/186
f 162/77/187 160/78/190 156/81/188
f 93/44/78 95/62/116 163/76/185
f 95/62/116 94/64/118 162/77/189
f 94/64/119 92/66/121 160/78/190
f 160/78/190 92/66/121 128/66/159
f 92/66/121 96/65/120 128/66/159
f 96/65/120 100/69/125 120/69/150
f 100/69/125 104/72/129 120/69/150
f 104/72/129 108/75/133 112/75/142
f 112/75/142 116/72/146 104/72/129
f 116/72/146 120/69/150 104/72/129
f 120/69/150 124/65/154 96/65/120
f 124/65/154 128/66/159 96/65/120
f 128/66/159 132/78/158 160/78/190
f 132/78/158 136/81/163 160/78/190
f 136/81/163 140/84/167 152/84/184
f 140/84/167 144/87/171 152/84/184
f 144/87/171 148/87/180 152/84/184
f 152/84/184 156/81/188 136/81/163
o handle
v -0.057409 0.086145 0.002896
v -0.024182 0.169764 -0.001268
v -0.056088 0.085696 0.004425
v -0.022861 0.169315 0.000261
v -0.055325 0.085488 0.006338
v -0.022098 0.169107 0.002174
v -0.055212 0.085546 0.008404
v -0.021985 0.169165 0.004240
v -0.055762 0.085863 0.010374
v -0.022535 0.169482 0.006211
v -0.056910 0.086401 0.012011
v -0.023683 0.170019 0.007847
v -0.058517 0.087095 0.013117
v -0.025290 0.170713 0.008953
v -0.060389 0.087860 0.013558
v -0.027162 0.171479 0.009394
v -0.062301 0.088606 0.013281
v -0.029074 0.172224 0.009118
v -0.064021 0.089242 0.012321
v -0.030794 0.172860 0.008157
v -0.065342 0.089691 0.010792
v -0.032115 0.173309 0.006628
v -0.066105 0.089899 0.008878
v -0.032878 0.173517 0.004715
v -0.066219 0.089841 0.006812
v -0.032992 0.173459 0.002649
v -0.065668 0.089524 0.004842
v -0.032441 0.173142 0.000678
v -0.064520 0.088986 0.003205
v -0.031293 0.172605 -0.000958
v -0.062913 0.088293 0.002100
v -0.029686 0.171911 -0.002064
v -0.061041 0.087527 0.001659
v -0.027814 0.171145 -0.002505
v -0.059129 0.086781 0.001935
v -0.025903 0.170399 -0.002229
vn 0.5546 -0.2597 -0.7906
vn 0.7762 -0.3350 -0.5340
vn 0.9043 -0.3699 -0.2131
vn 0.9233 -0.3602 0.1335
vn 0.8309 -0.3071 0.4641
vn 0.6383 -0.2169 0.7386
vn 0.3687 -0.1005 0.9241
vn 0.0546 0.0280 0.9981
vn -0.2660 0.1531 0.9517
vn -0.5546 0.2597 0.7906
vn -0.7762 0.3350 0.5340
vn -0.9043 0.3699 0.2131
vn -0.9233 0.3602 -0.1335
vn -0.8309 0.3071 -0.4641
vn -0.6383 0.2169 -0.7386
vn -0.3687 0.1005 -0.9241
vn -0.0546 -0.0280 -0.9981
vn 0.2660 -0.1531 -0.9517
vt 0.531781 0.773434
vt 0.539411 0.717472
vt 0.531781 0.717472
vt 0.539411 0.773434
vt 0.546121 0.717472
vt 0.546121 0.773434
vt 0.551102 0.717472
vt 0.551102 0.773434
vt 0.553752 0.717472
vt 0.553752 0.773434
vt 0.524150 0.717472
vt 0.524150 0.773434
vt 0.517440 0.717472
vt 0.517440 0.773434
vt 0.512460 0.717472
vt 0.512460 0.773434
vt 0.509810 0.717472
vt 0.509810 0.773434
s 1
usemtl sword_m
f 165/88/193 166/89/194 164/90/193
f 167/91/194 168/92/195 166/89/194
f 169/93/195 170/94/196 168/92/195
f 171/95/196 172/96/197 170/94/196
f 173/97/197 174/96/198 172/96/197
f 175/97/198 176/94/199 174/96/198
f 177/95/199 178/92/200 176/94/199
f 179/93/200 180/89/201 178/92/200
f 181/91/201 182/90/202 180/89/201
f 183/88/202 184/98/203 182/90/202
f 185/99/203 186/100/204 184/98/203
f 187/101/204 188/102/205 186/100/204
f 189/103/205 190/104/206 188/102/205
f 191/105/206 192/104/207 190/104/206
f 193/105/207 194/102/208 192/104/207
f 195/103/208 196/100/209 194/102/208
f 197/101/209 198/98/210 196/100/209
f 199/99/210 164/90/193 198/98/210
f 165/88/193 167/91/194 166/89/194
f 167/91/194 169/93/195 168/92/195
f 169/93/195 171/95/196 170/94/196
f 171/95/196 173/97/197 172/96/197
f 173/97/197 175/97/198 174/96/198
f 175/97/198 177/95/199 176/94/199
f 177/95/199 179/93/200 178/92/200
f 179/93/200 181/91/201 180/89/201
f 181/91/201 183/88/202 182/90/202
f 183/88/202 185/99/203 184/98/203
f 185/99/203 187/101/204 186/100/204
f 187/101/204 189/103/205 188/102/205
f 189/103/205 191/105/206 190/104/206
f 191/105/206 193/105/207 192/104/207
f 193/105/207 195/103/208 194/102/208
f 195/103/208 197/101/209 196/100/209
f 197/101/209 199/99/210 198/98/210
f 199/99/210 165/88/193 164/90/193
o below_handle
v -0.069506 0.088111 0.007836
v -0.084259 0.082325 -0.000611
v -0.087436 0.074330 -0.000213
v -0.079638 0.077174 0.004322
v -0.075600 0.069894 0.009546
v -0.074681 0.061095 0.013082
v -0.063805 0.085441 -0.000291
v -0.059766 0.084638 0.015810
v -0.052703 0.071072 0.025221
v -0.055880 0.063077 0.025619
v -0.059762 0.070086 0.020593
v -0.067865 0.067135 0.015878
v -0.078558 0.079655 -0.008739
v -0.081735 0.071660 -0.008341
v -0.073937 0.074504 -0.003805
v -0.069899 0.067224 0.001419
v -0.068980 0.058425 0.004955
v -0.054065 0.081967 0.007682
v -0.047002 0.068402 0.017094
v -0.050179 0.060407 0.017492
v -0.054061 0.067416 0.012466
v -0.062164 0.064465 0.007751
v -0.069732 0.091590 0.007984
v -0.086639 0.084959 -0.001697
v -0.092596 0.069967 -0.000951
v -0.081672 0.073951 0.005404
v -0.078769 0.068718 0.009159
v -0.077444 0.056038 0.014254
v -0.062761 0.088324 -0.001955
v -0.079667 0.081694 -0.011636
v -0.058495 0.087582 0.017184
v -0.050400 0.072036 0.027969
v -0.056357 0.057044 0.028716
v -0.061797 0.066864 0.021674
v -0.067622 0.064743 0.018284
v -0.085625 0.066702 -0.010890
v -0.074700 0.070686 -0.004535
v -0.071797 0.065453 -0.000780
v -0.070472 0.052773 0.004315
v -0.051523 0.084317 0.007245
v -0.043428 0.068771 0.018030
v -0.049386 0.053779 0.018777
v -0.054825 0.063599 0.011735
v -0.060650 0.061478 0.008346
v -0.068878 0.088931 0.006883
v -0.084342 0.082866 -0.001973
v -0.088438 0.072559 -0.001460
v -0.079607 0.075779 0.003677
v -0.075944 0.069176 0.008416
v -0.074891 0.059094 0.012467
v -0.064163 0.086723 0.000162
v -0.079628 0.080658 -0.008694
v -0.058643 0.085281 0.015261
v -0.051238 0.071061 0.025127
v -0.055334 0.060754 0.025640
v -0.059731 0.068692 0.019948
v -0.067082 0.066015 0.015671
v -0.083724 0.070351 -0.008181
v -0.074893 0.073571 -0.003044
v -0.071230 0.066968 0.001695
v -0.070177 0.056886 0.005746
v -0.053928 0.083073 0.008540
v -0.046524 0.068853 0.018406
v -0.050620 0.058546 0.018919
v -0.055017 0.066484 0.013227
v -0.062367 0.063807 0.008950
vn -0.5546 0.2597 0.7906
vn 0.5546 -0.2597 -0.7906
vn 0.1131 -0.9177 0.3809
vn 0.1127 -0.9178 0.3806
vn 0.7333 0.6016 0.3168
vn -0.7237 -0.6196 -0.3041
vn 0.4250 -0.7284 0.5374
vn -0.1325 0.9103 -0.3920
vn 0.7459 -0.2660 0.6106
vn -0.8265 -0.2821 -0.4871
vn 0.3689 0.9283 -0.0462
vn -0.7459 0.2660 -0.6106
vn -0.7238 -0.6192 -0.3043
vn -0.3062 -0.4467 0.8406
vn -0.3062 -0.4467 0.8407
vn 0.1205 0.0015 0.9927
vn -0.4771 0.8250 0.3030
vn 0.1050 0.6176 0.7794
vn 0.1766 0.3828 0.9068
vn 0.4906 -0.8199 -0.2952
vn -0.9085 -0.2319 0.3475
vn -0.9173 0.3716 0.1431
vn 0.1052 0.6173 0.7796
vn -0.4768 0.8251 0.3031
vn -0.6940 0.6933 0.1940
vn -0.6550 -0.4592 0.6001
vn 0.9173 -0.3716 -0.1431
vn 0.3197 0.4518 -0.8329
vn 0.9018 0.2444 -0.3564
vn 0.9734 0.0097 -0.2290
vn -0.1118 -0.6051 -0.7883
vn -0.1205 -0.0015 -0.9927
vn 0.9019 0.2442 -0.3562
vn 0.3199 0.4519 -0.8327
vn 0.1027 0.3201 -0.9418
vn 0.1418 -0.8324 -0.5358
vn -0.5073 0.7897 0.3450
vn -0.9065 0.3703 0.2027
vn -0.3474 -0.4001 0.8481
vn -0.8920 -0.2061 0.4023
vn -0.9590 0.0136 0.2831
vn 0.3347 0.3954 -0.8554
vn 0.0563 0.5887 0.8064
vn 0.0645 0.0240 0.9976
vn -0.8922 -0.2059 0.4021
vn -0.3476 -0.4002 0.8479
vn -0.1444 -0.2769 0.9500
vn -0.1809 0.8014 0.5701
vn -0.0645 -0.0240 -0.9976
vn 0.4947 -0.7945 -0.3523
vn -0.0500 -0.6005 -0.7981
vn -0.1170 -0.3808 -0.9172
vn 0.8983 0.1944 -0.3940
vn 0.9065 -0.3703 -0.2027
vn -0.0501 -0.6002 -0.7983
vn 0.4944 -0.7946 -0.3524
vn 0.6976 -0.6713 -0.2504
vn 0.6611 0.4071 -0.6303
vn 0.1050 0.6176 0.7795
vt 0.648566 0.830167
vt 0.640692 0.808587
vt 0.650123 0.799924
vt 0.627980 0.790939
vt 0.640693 0.802626
vt 0.664792 0.796399
vt 0.671571 0.802626
vt 0.684284 0.816325
vt 0.664862 0.835102
vt 0.647473 0.796399
vt 0.656132 0.778293
vt 0.647402 0.835102
vt 0.627980 0.816325
vt 0.684284 0.790939
vt 0.630416 0.814623
vt 0.648181 0.831798
vt 0.630416 0.797169
vt 0.640692 0.806616
vt 0.649247 0.798759
vt 0.656132 0.784363
vt 0.681848 0.814623
vt 0.664083 0.831798
vt 0.681848 0.797169
vt 0.671572 0.806616
vt 0.663017 0.798759
vt 0.631618 0.813783
vt 0.631618 0.800245
vt 0.656132 0.787360
vt 0.680646 0.813783
vt 0.663698 0.830167
vt 0.680646 0.800245
vt 0.671573 0.808587
vt 0.662141 0.799924
s 1
usemtl sword_m
f 200/106/211 203/107/211 204/108/211
f 215/108/212 214/107/212 206/106/212
f 235/109/213 225/110/213 224/109/213
f 243/111/214 233/112/214 234/111/214
f 240/113/215 230/114/215 231/113/215
f 236/110/216 226/115/216 225/110/216
f 227/116/217 243/111/217 234/111/217
f 228/117/218 223/118/218 222/117/218
f 241/119/219 231/113/219 232/119/219
f 237/115/220 227/116/220 226/115/220
f 239/114/221 222/117/221 230/114/221
f 229/118/222 224/109/222 223/118/222
f 242/112/223 232/119/223 233/112/223
f 222/117/224 245/120/225 244/121/224
f 223/118/226 246/122/226 245/120/226
f 246/122/227 225/110/227 247/123/227
f 225/110/228 248/124/228 247/123/228
f 226/115/229 249/125/229 248/124/229
f 251/120/230 228/117/230 250/121/230
f 253/126/231 230/114/231 252/127/231
f 254/128/232 231/113/232 253/126/232
f 233/112/233 254/128/233 255/129/233
f 256/130/234 233/112/234 255/129/234
f 249/125/235 234/111/235 256/130/235
f 230/114/236 244/121/236 252/127/236
f 257/122/237 229/118/237 251/120/237
f 236/110/238 257/122/238 258/123/238
f 259/124/239 236/110/239 258/123/239
f 260/125/240 237/115/240 259/124/240
f 239/114/241 262/126/241 261/127/241
f 240/113/242 263/128/242 262/126/242
f 263/128/243 242/112/243 264/129/243
f 242/112/244 265/130/244 264/129/244
f 243/111/245 260/125/245 265/130/245
f 228/117/246 261/127/246 250/121/246
f 244/121/247 201/131/247 200/106/247
f 245/120/248 202/132/248 201/131/248
f 202/132/249 247/123/249 203/107/249
f 247/123/250 204/108/250 203/107/250
f 248/124/251 205/133/251 204/108/251
f 212/131/252 250/121/252 206/106/252
f 208/134/253 252/127/253 207/135/253
f 209/136/254 253/126/254 208/134/254
f 255/129/255 209/136/255 210/137/255
f 211/138/256 255/129/256 210/137/256
f 205/133/257 256/130/257 211/138/257
f 252/127/258 200/106/258 207/135/258
f 213/132/259 251/120/259 212/131/259
f 258/123/260 213/132/260 214/107/260
f 215/108/261 258/123/261 214/107/261
f 216/133/262 259/124/262 215/108/262
f 261/127/263 218/134/263 217/135/263
f 262/126/264 219/136/264 218/134/264
f 219/136/265 264/129/265 220/137/265
f 264/129/266 221/138/266 220/137/266
f 265/130/267 216/133/267 221/138/267
f 250/121/268 217/135/268 206/106/268
f 200/106/211 201/131/211 203/107/211
f 201/131/211 202/132/211 203/107/211
f 208/134/211 207/135/211 210/137/211
f 207/135/211 200/106/211 211/138/211
f 210/137/211 207/135/211 211/138/211
f 210/137/211 209/136/211 208/134/211
f 204/108/211 205/133/211 211/138/211
f 204/108/211 211/138/211 200/106/211
f 213/132/212 212/131/212 214/107/212
f 212/131/212 206/106/212 214/107/212
f 206/106/212 217/135/212 221/138/212
f 217/135/212 218/134/212 220/137/212
f 218/134/212 219/136/212 220/137/212
f 221/138/212 216/133/212 215/108/212
f 217/135/212 220/137/212 221/138/212
f 221/138/212 215/108/212 206/106/212
f 235/109/213 236/110/213 225/110/213
f 243/111/214 242/112/214 233/112/214
f 240/113/215 239/114/215 230/114/215
f 236/110/216 237/115/216 226/115/216
f 227/116/217 238/116/217 243/111/217
f 228/117/218 229/118/218 223/118/218
f 241/119/219 240/113/219 231/113/219
f 237/115/220 238/116/220 227/116/220
f 239/114/221 228/117/221 222/117/221
f 229/118/222 235/109/222 224/109/222
f 242/112/223 241/119/223 232/119/223
f 222/117/224 223/118/225 245/120/225
f 223/118/226 224/109/226 246/122/226
f 246/122/227 224/109/227 225/110/227
f 225/110/228 226/115/269 248/124/228
f 226/115/229 227/116/229 249/125/229
f 251/120/230 229/118/230 228/117/230
f 253/126/231 231/113/231 230/114/231
f 254/128/232 232/119/232 231/113/232
f 233/112/233 232/119/233 254/128/233
f 256/130/234 234/111/234 233/112/234
f 249/125/235 227/116/235 234/111/235
f 230/114/236 222/117/236 244/121/236
f 257/122/237 235/109/237 229/118/237
f 236/110/238 235/109/238 257/122/238
f 259/124/239 237/115/239 236/110/239
f 260/125/240 238/116/240 237/115/240
f 239/114/241 240/113/241 262/126/241
f 240/113/242 241/119/242 263/128/242
f 263/128/243 241/119/243 242/112/243
f 242/112/244 243/111/244 265/130/244
f 243/111/245 238/116/245 260/125/245
f 228/117/246 239/114/246 261/127/246
f 244/121/247 245/120/247 201/131/247
f 245/120/248 246/122/248 202/132/248
f 202/132/249 246/122/249 247/123/249
f 247/123/250 248/124/250 204/108/250
f 248/124/251 249/125/251 205/133/251
f 212/131/252 251/120/252 250/121/252
f 208/134/253 253/126/253 252/127/253
f 209/136/254 254/128/254 253/126/254
f 255/129/255 254/128/255 209/136/255
f 211/138/256 256/130/256 255/129/256
f 205/133/257 249/125/257 256/130/257
f 252/127/258 244/121/258 200/106/258
f 213/132/259 257/122/259 251/120/259
f 258/123/260 257/122/260 213/132/260
f 215/108/261 259/124/261 258/123/261
f 216/133/262 260/125/262 259/124/262
f 261/127/263 262/126/263 218/134/263
f 262/126/264 263/128/264 219/136/264
f 219/136/265 263/128/265 264/129/265
f 264/129/266 265/130/266 221/138/266
f 265/130/267 260/125/267 216/133/267
f 250/121/268 261/127/268 217/135/268
